<svg width="109" height="44" viewBox="0 0 109 44" fill="none" xmlns="http://www.w3.org/2000/svg">
<path d="M35.8 36V7.2H42.136C44.392 7.2 46.012 7.656 46.996 8.568C48.004 9.48 48.544 10.968 48.616 13.032C48.664 14.4 48.688 15.576 48.688 16.56C48.688 17.52 48.664 18.6 48.616 19.8C48.568 21.144 48.328 22.236 47.896 23.076C47.488 23.916 46.84 24.54 45.952 24.948L49.084 36H44.728L42.028 25.632H39.904V36H35.8ZM39.904 21.96H42.136C42.952 21.96 43.54 21.804 43.9 21.492C44.26 21.18 44.464 20.688 44.512 20.016C44.56 18.744 44.584 17.544 44.584 16.416C44.584 15.288 44.56 14.1 44.512 12.852C44.464 12.156 44.26 11.652 43.9 11.34C43.54 11.028 42.952 10.872 42.136 10.872H39.904V21.96ZM54.5664 36L50.8224 14.4H55.1064L56.4384 24.48L57.2664 32.904H58.1664L59.0664 24.48L60.1824 14.4H64.4664L60.7224 37.944C60.5064 39.168 60.1704 40.188 59.7144 41.004C59.2824 41.82 58.5864 42.432 57.6264 42.84C56.6904 43.272 55.3824 43.488 53.7024 43.488C53.3184 43.488 52.8864 43.464 52.4064 43.416C51.9504 43.368 51.5184 43.32 51.1104 43.272V40.14C51.4224 40.164 51.8304 40.188 52.3344 40.212C52.8624 40.236 53.3184 40.248 53.7024 40.248C54.7104 40.248 55.4064 40.092 55.7904 39.78C56.1744 39.492 56.4144 38.976 56.5104 38.232L56.8344 36H54.5664ZM75.0302 7.2H79.2422V36H75.0302V33.84H74.3822C73.9022 34.632 73.3622 35.244 72.7622 35.676C72.1862 36.108 71.3702 36.324 70.3142 36.324C68.8502 36.324 67.7462 35.916 67.0022 35.1C66.2822 34.26 65.8742 32.892 65.7782 30.996C65.7542 30.204 65.7302 29.304 65.7062 28.296C65.7062 27.264 65.7062 26.208 65.7062 25.128C65.7062 24.048 65.7062 23.016 65.7062 22.032C65.7302 21.024 65.7542 20.148 65.7782 19.404C65.8502 17.484 66.2822 16.116 67.0742 15.3C67.8662 14.484 68.9702 14.076 70.3862 14.076C71.4662 14.076 72.2822 14.292 72.8342 14.724C73.4102 15.132 73.9382 15.744 74.4182 16.56H75.0302V7.2ZM71.9702 33.264C72.5942 33.264 73.1942 33.108 73.7702 32.796C74.3702 32.484 74.7902 32.028 75.0302 31.428V18.972C74.7902 18.372 74.3702 17.916 73.7702 17.604C73.1942 17.292 72.5942 17.136 71.9702 17.136C71.2982 17.136 70.8062 17.292 70.4942 17.604C70.1822 17.892 70.0142 18.348 69.9902 18.972C69.8942 20.988 69.8462 23.1 69.8462 25.308C69.8462 27.516 69.8942 29.508 69.9902 31.284C70.0142 32.004 70.1702 32.52 70.4582 32.832C70.7702 33.12 71.2742 33.264 71.9702 33.264ZM91.3384 28.044H95.4424C95.4424 28.308 95.4424 28.728 95.4424 29.304C95.4664 29.88 95.4784 30.36 95.4784 30.744C95.3584 32.736 94.8184 34.164 93.8584 35.028C92.8984 35.892 91.3384 36.324 89.1784 36.324C86.8984 36.324 85.2664 35.892 84.2824 35.028C83.2984 34.14 82.7464 32.712 82.6264 30.744C82.6024 30.048 82.5784 29.208 82.5544 28.224C82.5544 27.24 82.5544 26.22 82.5544 25.164C82.5544 24.108 82.5544 23.1 82.5544 22.14C82.5784 21.18 82.6024 20.364 82.6264 19.692C82.7464 17.676 83.3104 16.236 84.3184 15.372C85.3504 14.508 86.9464 14.076 89.1064 14.076C91.2904 14.076 92.8744 14.508 93.8584 15.372C94.8424 16.236 95.3824 17.628 95.4784 19.548C95.4784 19.812 95.4784 20.304 95.4784 21.024C95.5024 21.744 95.5024 22.548 95.4784 23.436C95.4784 24.324 95.4664 25.164 95.4424 25.956H86.7304C86.7304 26.796 86.7424 27.648 86.7664 28.512C86.7904 29.376 86.8144 30.276 86.8384 31.212C86.8624 31.932 87.0544 32.448 87.4144 32.76C87.7744 33.048 88.3504 33.192 89.1424 33.192C89.9344 33.192 90.4864 33.048 90.7984 32.76C91.1104 32.448 91.2904 31.92 91.3384 31.176C91.3624 30.816 91.3744 30.372 91.3744 29.844C91.3744 29.316 91.3624 28.716 91.3384 28.044ZM89.1064 17.208C88.2904 17.208 87.7144 17.364 87.3784 17.676C87.0424 17.988 86.8624 18.468 86.8384 19.116C86.8144 19.764 86.7904 20.412 86.7664 21.06C86.7664 21.684 86.7664 22.32 86.7664 22.968H91.3744C91.3744 22.152 91.3744 21.372 91.3744 20.628C91.3744 19.86 91.3624 19.356 91.3384 19.116C91.2904 18.42 91.0864 17.928 90.7264 17.64C90.3904 17.352 89.8504 17.208 89.1064 17.208ZM98.2341 36V14.4H102.482V16.812H103.274C103.466 15.876 103.826 15.228 104.354 14.868C104.906 14.484 105.638 14.292 106.55 14.292C106.814 14.292 107.078 14.304 107.342 14.328C107.606 14.352 107.846 14.364 108.062 14.364V17.568H106.586C105.41 17.568 104.486 17.748 103.814 18.108C103.142 18.444 102.698 19.044 102.482 19.908V36H98.2341Z" fill="white"/>
<path d="M12.8557 39H2.4652L0 36.9692V28.4521L12.8557 39Z" fill="white"/>
<path d="M23.9997 21.3235V29.8405L12.8553 38.9999H2.46484L23.9997 21.3235Z" fill="#D62536"/>
<path d="M12.8557 28.3276H2.4652L0 26.3175V17.8005L12.8557 28.3276Z" fill="white"/>
<path d="M23.9997 10.6514V19.1684L12.8553 28.3278H2.46484L23.9997 10.6514Z" fill="#D62536"/>
<path d="M12.8557 17.6765H2.4652L0 15.6457V7.12866L12.8557 17.6765Z" fill="white"/>
<path d="M23.9997 0V8.517L12.8553 17.6764H2.46484L23.9997 0Z" fill="#D62536"/>
</svg>
